<svg xmlns="http://www.w3.org/2000/svg" width="40.191" height="39.186" viewBox="0 0 40.191 39.186">
  <path id="Icon_awesome-github" data-name="Icon awesome-github" d="M13.443,32.115c0,.162-.186.292-.421.292-.267.024-.454-.105-.454-.292,0-.162.186-.292.421-.292C13.232,31.8,13.443,31.929,13.443,32.115Zm-2.52-.365c-.057.162.105.348.348.4a.38.38,0,0,0,.5-.162c.049-.162-.105-.348-.348-.421A.416.416,0,0,0,10.923,31.751Zm3.582-.138c-.235.057-.4.211-.373.4.024.162.235.267.478.211s.4-.211.373-.373S14.739,31.589,14.5,31.613ZM19.836.562A19.43,19.43,0,0,0,0,20.334,20.315,20.315,0,0,0,13.734,39.716c1.037.186,1.4-.454,1.4-.98,0-.5-.024-3.274-.024-4.975,0,0-5.672,1.215-6.863-2.415,0,0-.924-2.358-2.253-2.966,0,0-1.856-1.272.13-1.248a4.277,4.277,0,0,1,3.128,2.091c1.775,3.128,4.748,2.228,5.907,1.694a4.5,4.5,0,0,1,1.3-2.731c-4.53-.5-9.1-1.159-9.1-8.954A6.141,6.141,0,0,1,9.27,14.459a7.656,7.656,0,0,1,.211-5.5c1.694-.527,5.591,2.188,5.591,2.188a19.142,19.142,0,0,1,10.177,0s3.9-2.723,5.591-2.188a7.652,7.652,0,0,1,.211,5.5,6.3,6.3,0,0,1,2.091,4.773c0,7.819-4.773,8.443-9.3,8.954a4.792,4.792,0,0,1,1.378,3.76c0,2.731-.024,6.11-.024,6.774,0,.527.373,1.167,1.4.98a20.128,20.128,0,0,0,13.6-19.366C40.191,9.095,31.075.562,19.836.562ZM7.876,28.51c-.105.081-.081.267.057.421.13.13.316.186.421.081.105-.081.081-.267-.057-.421C8.168,28.461,7.981,28.4,7.876,28.51ZM7,27.853c-.057.105.024.235.186.316a.241.241,0,0,0,.348-.057c.057-.105-.024-.235-.186-.316C7.187,27.748,7.058,27.772,7,27.853Zm2.625,2.885c-.13.105-.081.348.105.5.186.186.421.211.527.081.105-.105.057-.348-.105-.5C9.975,30.633,9.732,30.608,9.626,30.738ZM8.7,29.547c-.13.081-.13.292,0,.478s.348.267.454.186a.37.37,0,0,0,0-.5C9.043,29.522,8.832,29.441,8.7,29.547Z" transform="translate(0 -0.563)" fill="#fff"/>
</svg>
